<svg width="24" height="24" viewBox="0 0 24 24" fill="none" xmlns="http://www.w3.org/2000/svg">
<rect width="24" height="24" fill="#F5F5F5"/>
<path d="M478 -393H-4V371.835L478 373V-393Z" fill="white"/>
<path d="M7.21981 14.47L9.68981 12L7.21981 9.53C7.12109 9.43833 7.04892 9.32172 7.0109 9.19247C6.97289 9.06323 6.97044 8.92612 7.00381 8.79559C7.03719 8.66507 7.10515 8.54596 7.20053 8.45082C7.29592 8.35568 7.4152 8.28803 7.54581 8.255C7.67619 8.22158 7.81316 8.22391 7.94233 8.26175C8.07149 8.29958 8.18807 8.37152 8.27981 8.47L11.2798 11.47C11.4203 11.6106 11.4992 11.8012 11.4992 12C11.4992 12.1987 11.4203 12.3894 11.2798 12.53L8.27981 15.53C8.13755 15.6624 7.9495 15.7345 7.75518 15.7312C7.56087 15.7278 7.37542 15.6492 7.23781 15.512C7.10057 15.3744 7.02202 15.1889 7.01866 14.9946C7.0153 14.8003 7.08741 14.6123 7.21981 14.47Z" fill="#334155"/>
<path d="M3.75 2H20.25C21.216 2 22 2.784 22 3.75V20.25C22 20.7141 21.8156 21.1592 21.4874 21.4874C21.1592 21.8156 20.7141 22 20.25 22H3.75C3.28587 22 2.84075 21.8156 2.51256 21.4874C2.18437 21.1592 2 20.7141 2 20.25V3.75C2 2.784 2.784 2 3.75 2ZM3.5 3.75V20.25C3.5 20.388 3.612 20.5 3.75 20.5H15V3.5H3.75C3.6837 3.5 3.62011 3.52634 3.57322 3.57322C3.52634 3.62011 3.5 3.6837 3.5 3.75ZM16.5 20.5H20.25C20.3163 20.5 20.3799 20.4737 20.4268 20.4268C20.4737 20.3799 20.5 20.3163 20.5 20.25V3.75C20.5 3.6837 20.4737 3.62011 20.4268 3.57322C20.3799 3.52634 20.3163 3.5 20.25 3.5H16.5V20.5Z" fill="#334155"/>
</svg>
