<svg width="14" height="13" viewBox="0 0 14 13" fill="none" xmlns="http://www.w3.org/2000/svg">
<path d="M6.61642 1.80852L7.00001 2.26727L7.38358 1.80851C8.0625 0.996526 9.079 0.5 10.15 0.5C12.0383 0.5 13.5 1.97066 13.5 3.89645C13.5 5.08025 12.9815 6.18422 11.9706 7.43413C10.9765 8.66335 9.5561 9.97512 7.79988 11.597C7.75926 11.6345 7.71846 11.6722 7.67748 11.71L7 12.3248L6.32245 11.71C6.2816 11.6722 6.24092 11.6347 6.20043 11.5973C4.44405 9.97529 3.0235 8.66345 2.02936 7.43416C1.01854 6.18425 0.5 5.08027 0.5 3.89645C0.5 1.97066 1.96171 0.5 3.85 0.5C4.92099 0.5 5.93747 0.996521 6.61642 1.80852Z" fill="#94A3B8" stroke="#94A3B8"/>
</svg>
