<svg width="22" height="21" viewBox="0 0 22 21" fill="none" xmlns="http://www.w3.org/2000/svg">
<path d="M11.5095 0.514749L14.1238 5.79273C14.1833 5.92669 14.2768 6.04273 14.3951 6.12928C14.5134 6.21583 14.6523 6.26986 14.798 6.286L20.5692 7.141C20.7363 7.16248 20.8939 7.23106 21.0234 7.33873C21.153 7.4464 21.2493 7.58871 21.301 7.74906C21.3528 7.9094 21.3578 8.08115 21.3156 8.24425C21.2733 8.40734 21.1855 8.55506 21.0625 8.67013L16.9026 12.7972C16.7964 12.8963 16.7167 13.0205 16.6708 13.1583C16.6248 13.2962 16.6141 13.4433 16.6395 13.5864L17.6425 19.3905C17.6715 19.5573 17.6532 19.7289 17.5895 19.8857C17.5258 20.0426 17.4194 20.1784 17.2824 20.2778C17.1453 20.3772 16.9831 20.4361 16.8142 20.4478C16.6454 20.4595 16.4766 20.4236 16.3271 20.3442L11.1313 17.5983C10.9983 17.533 10.852 17.499 10.7038 17.499C10.5556 17.499 10.4094 17.533 10.2763 17.5983L5.08056 20.3442C4.93108 20.4236 4.7623 20.4595 4.59342 20.4478C4.42454 20.4361 4.26234 20.3772 4.12529 20.2778C3.98823 20.1784 3.88182 20.0426 3.81816 19.8857C3.75449 19.7289 3.73614 19.5573 3.76518 19.3905L4.76816 13.5206C4.79358 13.3776 4.78283 13.2304 4.73688 13.0926C4.69093 12.9547 4.61125 12.8306 4.50508 12.7314L0.29585 8.67013C0.17132 8.55191 0.0837442 8.40011 0.0437304 8.23312C0.00371671 8.06614 0.0129823 7.89113 0.0704048 7.7293C0.127827 7.56748 0.230943 7.42577 0.36726 7.32136C0.503578 7.21694 0.667249 7.15429 0.838446 7.141L6.6097 6.286C6.75537 6.26986 6.89427 6.21583 7.01256 6.12928C7.13084 6.04273 7.22437 5.92669 7.28383 5.79273L9.89816 0.514749C9.96935 0.361028 10.083 0.230882 10.2258 0.139673C10.3686 0.0484645 10.5344 0 10.7038 0C10.8732 0 11.0391 0.0484645 11.1819 0.139673C11.3246 0.230882 11.4383 0.361028 11.5095 0.514749Z" fill="#FACC15"/>
</svg>
