<svg width="23" height="22" viewBox="0 0 23 22" fill="none" xmlns="http://www.w3.org/2000/svg">
<path id="Vector" d="M12.5287 1.13014L15.143 6.40812C15.2025 6.54208 15.296 6.65812 15.4143 6.74467C15.5326 6.83122 15.6715 6.88525 15.8171 6.90139L21.5884 7.75639C21.7555 7.77786 21.913 7.84644 22.0426 7.95411C22.1722 8.06178 22.2685 8.2041 22.3202 8.36444C22.3719 8.52479 22.377 8.69654 22.3347 8.85963C22.2925 9.02273 22.2047 9.17044 22.0817 9.28552L17.9217 13.4125C17.8156 13.5117 17.7359 13.6359 17.6899 13.7737C17.644 13.9116 17.6332 14.0587 17.6587 14.2018L18.6617 20.0059C18.6907 20.1727 18.6723 20.3443 18.6087 20.5011C18.545 20.658 18.4386 20.7938 18.3015 20.8932C18.1645 20.9926 18.0023 21.0515 17.8334 21.0632C17.6645 21.0749 17.4957 21.039 17.3463 20.9596L12.1505 18.2137C12.0175 18.1484 11.8712 18.1144 11.723 18.1144C11.5748 18.1144 11.4285 18.1484 11.2955 18.2137L6.09973 20.9596C5.95025 21.039 5.78146 21.0749 5.61258 21.0632C5.4437 21.0515 5.28151 20.9926 5.14445 20.8932C5.0074 20.7938 4.90098 20.658 4.83732 20.5011C4.77366 20.3443 4.7553 20.1727 4.78434 20.0059L5.78732 14.136C5.81274 13.9929 5.80199 13.8458 5.75604 13.708C5.7101 13.5701 5.63042 13.446 5.52425 13.3468L1.31502 9.28552C1.19049 9.16729 1.10291 9.01549 1.0629 8.84851C1.02288 8.68152 1.03215 8.50652 1.08957 8.34469C1.14699 8.18286 1.25011 8.04116 1.38643 7.93674C1.52274 7.83233 1.68641 7.76968 1.85761 7.75639L7.62886 6.90139C7.77454 6.88525 7.91344 6.83122 8.03172 6.74467C8.15 6.65812 8.24354 6.54208 8.303 6.40812L10.9173 1.13014C10.9885 0.976415 11.1022 0.846269 11.245 0.75506C11.3877 0.663851 11.5536 0.615387 11.723 0.615387C11.8924 0.615387 12.0583 0.663851 12.201 0.75506C12.3438 0.846269 12.4575 0.976415 12.5287 1.13014Z" stroke="#FACC15" stroke-linecap="round" stroke-linejoin="round"/>
</svg>
