<svg width="14" height="14" viewBox="0 0 14 14" fill="none" xmlns="http://www.w3.org/2000/svg">
<rect width="14" height="14" fill="#F5F5F5"/>
<g id="Frame 1">
<path id="Vector 1" d="M1399 -163H-42V601.835L1399 603V-163Z" fill="white"/>
<path id="Vector 2" d="M882.5 495.494V-9.50612C882.5 -15.5789 877.579 -20.5027 871.506 -20.5061L-4.99388 -20.9939C-11.0714 -20.9973 -16 -16.0714 -16 -9.99389V495.006C-16 501.079 -11.0789 506.003 -5.00612 506.006L871.494 506.494C877.571 506.497 882.5 501.571 882.5 495.494Z" stroke="#E2E8F0" stroke-width="3"/>
<path id="Vector" d="M11.375 0H2.625C1.17513 0 0 1.176 0 2.625V11.375C0 12.0712 0.276562 12.7389 0.768845 13.2312C1.26113 13.7234 1.92881 14 2.625 14H11.375C12.0712 14 12.7389 13.7234 13.2312 13.2312C13.7234 12.7389 14 12.0712 14 11.375V2.625C14 1.176 12.8249 0 11.375 0ZM12.25 11.375C12.25 11.8589 11.8589 12.25 11.375 12.25H2.625C2.39294 12.25 2.17038 12.1578 2.00628 11.9937C1.84219 11.8296 1.75 11.6071 1.75 11.375V2.625C1.75 2.142 2.142 1.75 2.625 1.75H11.375C11.6071 1.75 11.8296 1.84219 11.9937 2.00628C12.1578 2.17038 12.25 2.39294 12.25 2.625V11.375ZM9.15162 4.52375L6.0585 7.61687L4.82037 6.37962C4.47913 6.0375 3.92525 6.0375 3.58312 6.37962C3.241 6.72175 3.241 7.27562 3.58312 7.61687L5.43987 9.47275C5.52106 9.55408 5.61749 9.6186 5.72364 9.66262C5.82979 9.70664 5.94358 9.7293 6.0585 9.7293C6.17342 9.7293 6.28721 9.70664 6.39336 9.66262C6.49951 9.6186 6.59594 9.55408 6.67712 9.47275L10.3889 5.761C10.731 5.41888 10.731 4.86587 10.3889 4.52375C10.0467 4.18162 9.49375 4.18162 9.15162 4.52375Z" fill="#334155"/>
</g>
</svg>
