<svg width="32" height="28" viewBox="0 0 32 28" fill="none" xmlns="http://www.w3.org/2000/svg">
<path d="M3.02051 0H28.9795C29.7806 0 30.5489 0.320798 31.1153 0.891823C31.6818 1.46285 32 2.23732 32 3.04487C32 3.85242 31.6818 4.6269 31.1153 5.19792C30.5489 5.76895 29.7806 6.08975 28.9795 6.08975H3.02051C2.21942 6.08975 1.45114 5.76895 0.884686 5.19792C0.318231 4.6269 9.00181e-08 3.85242 9.00181e-08 3.04487C9.00181e-08 2.23732 0.318231 1.46285 0.884686 0.891823C1.45114 0.320798 2.21942 0 3.02051 0ZM3.02051 10.9545H28.9795C29.3762 10.9545 29.7689 11.0333 30.1354 11.1863C30.5019 11.3393 30.8348 11.5636 31.1153 11.8464C31.3958 12.1291 31.6183 12.4648 31.7701 12.8342C31.9219 13.2036 32 13.5996 32 13.9994C32 14.3993 31.9219 14.7952 31.7701 15.1646C31.6183 15.5341 31.3958 15.8697 31.1153 16.1525C30.8348 16.4352 30.5019 16.6595 30.1354 16.8125C29.7689 16.9655 29.3762 17.0443 28.9795 17.0443H3.02051C2.62385 17.0443 2.23107 16.9655 1.86461 16.8125C1.49814 16.6595 1.16517 16.4352 0.884686 16.1525C0.604206 15.8697 0.381717 15.5341 0.229922 15.1646C0.0781277 14.7952 2.63657e-08 14.3993 2.63657e-08 13.9994C2.63657e-08 13.5996 0.0781277 13.2036 0.229922 12.8342C0.381717 12.4648 0.604206 12.1291 0.884686 11.8464C1.16517 11.5636 1.49814 11.3393 1.86461 11.1863C2.23107 11.0333 2.62385 10.9545 3.02051 10.9545ZM3.02051 21.9103H28.9795C29.3762 21.9103 29.7689 21.989 30.1354 22.142C30.5019 22.2951 30.8348 22.5193 31.1153 22.8021C31.3958 23.0848 31.6183 23.4205 31.7701 23.7899C31.9219 24.1593 32 24.5553 32 24.9551C32 25.355 31.9219 25.7509 31.7701 26.1203C31.6183 26.4898 31.3958 26.8254 31.1153 27.1082C30.8348 27.3909 30.5019 27.6152 30.1354 27.7682C29.7689 27.9212 29.3762 28 28.9795 28H3.02051C2.62385 28 2.23107 27.9212 1.86461 27.7682C1.49814 27.6152 1.16517 27.3909 0.884686 27.1082C0.604206 26.8254 0.381717 26.4898 0.229922 26.1203C0.0781277 25.7509 0 25.355 0 24.9551C0 24.5553 0.0781277 24.1593 0.229922 23.7899C0.381717 23.4205 0.604206 23.0848 0.884686 22.8021C1.16517 22.5193 1.49814 22.2951 1.86461 22.142C2.23107 21.989 2.62385 21.9103 3.02051 21.9103Z" fill="#475569"/>
</svg>
