<svg width="28" height="26" viewBox="0 0 28 26" fill="none" xmlns="http://www.w3.org/2000/svg">
<path id="Vector" d="M15.0871 0.65445L18.5198 7.36485C18.5978 7.53517 18.7207 7.6827 18.876 7.79274C19.0313 7.90277 19.2137 7.97147 19.4049 7.99199L26.9828 9.07903C27.2022 9.10634 27.4091 9.19353 27.5792 9.33042C27.7494 9.46731 27.8758 9.64825 27.9437 9.85211C28.0116 10.056 28.0182 10.2743 27.9628 10.4817C27.9073 10.6891 27.7921 10.8769 27.6305 11.0232L22.1684 16.2702C22.029 16.3963 21.9243 16.5542 21.864 16.7295C21.8037 16.9047 21.7896 17.0918 21.8229 17.2737L23.1399 24.653C23.178 24.865 23.1539 25.0832 23.0703 25.2826C22.9867 25.4821 22.847 25.6548 22.6671 25.7811C22.4871 25.9074 22.2741 25.9823 22.0524 25.9972C21.8306 26.0121 21.609 25.9665 21.4127 25.8655L14.5905 22.3744C14.4158 22.2914 14.2238 22.2482 14.0292 22.2482C13.8346 22.2482 13.6426 22.2914 13.4679 22.3744L6.64564 25.8655C6.44936 25.9665 6.22775 26.0121 6.006 25.9972C5.78426 25.9823 5.57129 25.9074 5.39133 25.7811C5.21137 25.6548 5.07164 25.4821 4.98805 25.2826C4.90446 25.0832 4.88036 24.865 4.91849 24.653L6.23544 17.19C6.26882 17.0082 6.2547 16.8211 6.19437 16.6458C6.13404 16.4706 6.02941 16.3127 5.89001 16.1866L0.363137 11.0232C0.199625 10.8729 0.0846344 10.6799 0.032095 10.4675C-0.0204445 10.2552 -0.00827838 10.0327 0.0671194 9.827C0.142517 9.62125 0.277911 9.44109 0.456901 9.30833C0.635891 9.17558 0.850797 9.09593 1.07559 9.07903L8.65345 7.99199C8.84472 7.97147 9.02711 7.90277 9.18242 7.79274C9.33772 7.6827 9.46054 7.53517 9.53861 7.36485L12.9713 0.65445C13.0648 0.459009 13.2141 0.293542 13.4015 0.17758C13.589 0.0616176 13.8068 0 14.0292 0C14.2516 0 14.4694 0.0616176 14.6569 0.17758C14.8443 0.293542 14.9936 0.459009 15.0871 0.65445Z" fill="white"/>
</svg>
